<?xml version="1.0" standalone="no"?>
<!DOCTYPE svg PUBLIC "-//W3C//DTD SVG 20010904//EN"
 "http://www.w3.org/TR/2001/REC-SVG-20010904/DTD/svg10.dtd">
<svg version="1.0" xmlns="http://www.w3.org/2000/svg"
 width="480.000000pt" height="339.000000pt" viewBox="0 0 480.000000 339.000000"
 preserveAspectRatio="xMidYMid meet">

<g transform="translate(0.000000,339.000000) scale(0.100000,-0.100000)"
fill="#000000" stroke="none">
<path d="M2400 3274 c-75 -50 -208 -189 -249 -260 -19 -33 -49 -85 -68 -117
-19 -32 -46 -85 -59 -119 -57 -147 -145 -238 -306 -318 -117 -57 -185 -78
-383 -119 -77 -15 -181 -44 -230 -63 -50 -20 -117 -39 -150 -42 -99 -11 -271
-86 -433 -190 -90 -57 -229 -189 -290 -274 -79 -112 -113 -229 -78 -274 23
-31 96 -56 256 -88 85 -17 175 -40 200 -52 38 -17 78 -21 260 -29 249 -10 444
-25 548 -41 65 -10 74 -14 92 -43 11 -18 66 -77 123 -131 93 -90 112 -103 200
-142 54 -23 111 -42 127 -42 26 0 31 5 41 43 21 77 -5 275 -56 439 -6 17 3 18
177 19 101 0 314 4 473 9 315 9 393 19 525 71 96 38 224 46 445 30 328 -25
557 -75 699 -155 72 -41 108 -77 130 -130 44 -107 270 -325 320 -310 11 4 22
8 24 9 1 1 -4 29 -12 61 -9 33 -22 104 -31 159 -11 71 -25 120 -50 171 -57
115 -42 171 48 181 26 3 49 9 52 13 2 4 -27 22 -66 40 -66 30 -96 37 -265 58
-67 9 -73 12 -125 63 -62 60 -185 143 -379 254 -74 43 -159 93 -189 112 -86
55 -411 210 -476 227 -33 8 -139 29 -235 46 -225 39 -345 72 -447 121 -95 45
-123 77 -148 164 -36 123 0 352 80 508 40 77 46 134 17 160 -28 25 -51 21
-112 -19z m-505 -868 c81 -34 16 -62 -178 -77 -140 -11 -217 -7 -217 11 0 20
226 77 313 79 26 1 63 -6 82 -13z m713 -6 c73 -33 397 -105 559 -124 73 -9
133 -32 168 -65 19 -18 61 -38 115 -54 81 -25 158 -63 148 -73 -8 -8 -137 36
-253 85 -171 74 -372 118 -664 146 -137 14 -191 25 -191 41 0 3 7 18 15 34 18
36 42 38 103 10z m-1163 -90 c4 -6 -10 -10 -35 -10 -25 0 -39 4 -35 10 3 6 19
10 35 10 16 0 32 -4 35 -10z m-221 -31 c-6 -10 -65 -39 -79 -39 -16 0 0 20 28
34 37 18 61 21 51 5z m2012 -288 c134 -46 256 -123 240 -149 -4 -6 -75 -10
-174 -9 -226 1 -391 -29 -376 -68 10 -24 70 -35 244 -45 273 -16 310 -23 448
-87 70 -32 75 -36 52 -43 -14 -5 -97 -9 -185 -9 -197 -2 -329 -15 -362 -36
-30 -20 -127 -41 -257 -55 -82 -10 -114 -9 -202 6 -85 14 -115 15 -154 6 -77
-18 -87 -6 -32 35 26 20 117 106 202 193 166 168 260 240 358 271 78 25 104
23 198 -10z m-2030 -178 c47 -18 -44 -80 -181 -123 -89 -27 -313 -42 -300 -19
64 110 111 139 240 150 88 7 213 3 241 -8z m-114 -258 c104 -22 203 -72 276
-140 34 -31 62 -62 62 -68 0 -13 -483 -3 -637 13 -62 6 -148 25 -215 45 -62
19 -165 42 -228 51 -121 17 -153 31 -126 53 11 9 102 18 293 27 153 8 298 18
323 23 73 14 174 12 252 -4z"/>
<path d="M3494 1404 c-33 -19 -106 -75 -163 -123 l-104 -89 -271 -5 c-218 -4
-289 -9 -361 -25 -197 -43 -270 -104 -250 -208 10 -54 45 -80 168 -120 119
-38 168 -60 232 -104 22 -15 52 -34 66 -43 14 -8 51 -54 83 -101 32 -47 71
-97 88 -111 53 -45 72 -31 83 63 4 34 11 64 15 67 5 3 29 1 54 -5 25 -5 139
-19 253 -30 254 -24 299 -35 433 -99 58 -28 116 -51 128 -51 76 0 171 -96 203
-204 33 -109 68 -166 103 -166 19 0 36 81 36 171 0 44 6 81 16 100 8 17 14 35
12 40 -2 5 -32 24 -68 42 -55 28 -69 40 -98 91 -60 102 -180 209 -421 377 -46
31 -67 53 -70 70 -4 30 -17 39 -57 39 -55 0 -120 94 -111 159 3 20 30 91 61
159 31 68 54 127 51 132 -12 19 -51 10 -111 -26z m-322 -261 c98 -15 106 -18
97 -35 -11 -21 -53 -23 -114 -7 -112 29 -145 40 -145 49 0 14 40 13 162 -7z
m-369 -162 c18 -18 -7 -33 -59 -34 -27 -1 -61 2 -76 6 -31 8 -37 33 -10 41 28
8 133 -1 145 -13z m-246 -52 c155 -65 283 -151 283 -190 0 -10 -2 -19 -5 -19
-13 0 -62 30 -75 45 -23 27 -100 61 -215 95 -61 18 -122 39 -137 48 -27 16
-36 41 -20 56 13 14 90 -3 169 -35z m1173 -185 c135 -63 116 -95 -32 -54 -86
24 -138 26 -138 6 0 -19 34 -40 137 -82 48 -20 105 -45 126 -56 41 -20 117
-85 117 -99 0 -5 -45 14 -99 42 -117 59 -176 72 -406 94 -175 17 -300 39 -311
56 -4 7 24 8 78 3 100 -8 133 0 277 67 126 58 168 62 251 23z"/>
</g>
</svg>
