<?xml version="1.0" standalone="no"?>
<!DOCTYPE svg PUBLIC "-//W3C//DTD SVG 20010904//EN"
 "http://www.w3.org/TR/2001/REC-SVG-20010904/DTD/svg10.dtd">
<svg version="1.0" xmlns="http://www.w3.org/2000/svg"
 width="112.000000pt" height="79.000000pt" viewBox="0 0 112.000000 79.000000"
 preserveAspectRatio="xMidYMid meet">

<g transform="translate(0.000000,79.000000) scale(0.100000,-0.100000)"
fill="#000000" stroke="none">
<path d="M540 744 c-17 -15 -44 -52 -59 -83 -20 -38 -41 -63 -67 -79 -30 -18
-33 -22 -14 -18 34 7 60 -9 28 -17 -12 -4 -36 -7 -53 -7 -24 0 -27 2 -15 11
13 9 13 10 -2 6 -9 -3 -33 -9 -52 -13 -20 -3 -34 -9 -32 -13 2 -3 -11 -7 -30
-8 -45 -2 -150 -60 -180 -98 -13 -17 -25 -42 -26 -56 -3 -22 0 -23 27 -19 17
3 73 5 126 5 81 0 100 -3 118 -19 11 -10 18 -23 15 -27 -3 -5 0 -9 6 -9 7 0
21 -11 32 -25 11 -14 38 -35 59 -46 47 -24 55 -14 45 56 l-7 45 108 1 c104 1
106 2 60 13 l-49 11 55 52 c66 62 91 70 143 47 l39 -18 -35 -3 c-19 -2 -50 -6
-69 -9 -49 -8 -20 -24 44 -24 28 0 61 -7 75 -15 25 -14 24 -14 -20 -16 -34 -1
-24 -4 45 -14 106 -14 159 -34 175 -67 15 -29 51 -68 62 -68 12 0 9 40 -6 83
-12 33 -12 38 3 46 21 13 11 21 -35 28 -22 3 -50 16 -64 28 -39 34 -140 86
-152 79 -6 -4 -8 -3 -5 3 8 13 -73 49 -141 63 -62 12 -74 12 -47 0 16 -7 12
-9 -18 -7 -20 1 -36 6 -35 12 2 5 10 9 18 7 8 -1 3 5 -12 13 -35 19 -45 57
-29 109 29 98 25 105 -29 60z m163 -211 c-7 -2 -19 -2 -25 0 -7 3 -2 5 12 5
14 0 19 -2 13 -5z m73 -19 c10 -8 13 -12 6 -9 -8 4 -26 11 -40 15 -22 7 -23 8
-6 9 11 1 29 -6 40 -15z m-496 -94 c0 -14 -45 -30 -83 -30 l-32 1 24 19 c24
21 91 28 91 10z"/>
<path d="M688 343 c6 -2 18 -2 25 0 6 3 1 5 -13 5 -14 0 -19 -2 -12 -5z"/>
<path d="M68 333 c7 -3 16 -2 19 1 4 3 -2 6 -13 5 -11 0 -14 -3 -6 -6z"/>
<path d="M100 330 c0 -5 5 -10 10 -10 6 0 10 5 10 10 0 6 -4 10 -10 10 -5 0
-10 -4 -10 -10z"/>
<path d="M787 306 c-24 -19 -45 -24 -111 -28 -46 -3 -93 -11 -104 -17 -24 -13
-29 -45 -10 -57 7 -4 8 -3 4 4 -12 19 26 14 62 -8 18 -11 31 -24 28 -28 -2 -4
8 -23 24 -42 25 -30 28 -32 34 -14 3 10 20 24 38 30 18 7 47 17 65 25 25 10
36 10 55 1 22 -12 21 -12 -9 -7 -43 6 -41 0 7 -25 22 -11 40 -23 40 -26 0 -2
-9 0 -21 6 -11 6 -25 10 -30 8 -6 -2 13 -12 41 -22 42 -15 55 -26 66 -52 8
-18 18 -35 23 -38 13 -8 20 68 7 76 -6 4 -34 29 -62 55 -28 26 -67 62 -88 79
l-38 31 16 36 c18 44 6 48 -37 13z m-32 -46 c7 -12 -2 -12 -30 0 -19 8 -19 9
2 9 12 1 25 -3 28 -9z m-108 -36 c-3 -3 -12 -4 -19 -1 -8 3 -5 6 6 6 11 1 17
-2 13 -5z"/>
<path d="M198 313 c17 -2 47 -2 65 0 17 2 3 4 -33 4 -36 0 -50 -2 -32 -4z"/>
<path d="M616 185 c10 -8 24 -14 29 -14 6 0 1 6 -9 14 -11 8 -24 15 -30 15 -5
0 -1 -7 10 -15z"/>
<path d="M788 133 c12 -2 30 -2 40 0 9 3 -1 5 -23 4 -22 0 -30 -2 -17 -4z"/>
</g>
</svg>
